<svg id="color" enable-background="new 0 0 24 24" height="512" viewBox="0 0 24 24" width="512" xmlns="http://www.w3.org/2000/svg"><g fill="#cfd8dc"><path d="m3.426 13.136c-.147-.532.165-1.083.698-1.23l2.86-.79c.53-.148 1.083.166 1.23.698s-.165 1.083-.698 1.23l-2.86.79c-.54.148-1.084-.171-1.23-.698z"/><path d="m13.195 8.605c-.417-.362-.462-.994-.1-1.411l3.34-3.85c.361-.418.992-.462 1.411-.1.417.362.462.994.1 1.411l-3.34 3.85c-.361.416-.992.464-1.411.1z"/><path d="m19.5 11.5h-3.5c-.552 0-1-.448-1-1s.448-1 1-1h3.5c.552 0 1 .448 1 1s-.448 1-1 1z"/><path d="m8.595 8.265-1.76-2.57c-.312-.456-.195-1.078.26-1.39.457-.312 1.078-.195 1.39.26l1.76 2.57c.312.456.195 1.078-.26 1.39-.458.313-1.08.194-1.39-.26z"/><path d="m19.864 8.981-1.6-4.26c-.194-.517.067-1.094.584-1.288.517-.193 1.094.068 1.288.584l1.6 4.26c.194.517-.067 1.094-.584 1.288-.522.197-1.095-.068-1.288-.584z"/><path d="m7.494 3.412c-.045-.55.364-1.033.915-1.079l8.02-.66c.547-.046 1.033.364 1.079.915.045.55-.364 1.033-.915 1.079l-8.02.66c-.545.047-1.034-.361-1.079-.915z"/><path d="m2.869 12.579c-.513-.205-.762-.787-.557-1.3l2.52-6.299c.206-.513.785-.763 1.3-.558.513.205.762.787.557 1.3l-2.52 6.299c-.201.501-.774.766-1.3.558z"/></g><path d="m7.251 11.079c-.088 0-.178.012-.267.037l-2.758.762-.057.143c-.131.327-.42.553-.751.613-.039.16-.039.332.008.502.121.439.52.734.962.734.088 0 .178-.012.268-.036l2.86-.79c.533-.147.845-.698.698-1.23-.123-.443-.526-.735-.963-.735z" fill="#b4bcc0"/><path d="m7.66 4.13c-.195 0-.391.057-.564.175-.23.157-.373.392-.42.645.078.179.104.381.067.581.025.056.055.111.091.164l1.76 2.57c.194.282.507.435.827.435.194 0 .391-.056.564-.175.456-.312.572-.935.26-1.39l-1.76-2.57c-.078-.114-.175-.207-.284-.277-.089-.026-.172-.065-.249-.115-.095-.028-.193-.043-.292-.043z" fill="#b4bcc0"/><path d="m12 2.038-3.592.295c-.55.045-.96.528-.915 1.079.027.325.206.599.459.761.077.049.16.088.249.115.09.028.186.042.285.042.029 0 .058-.001.087-.004l3.427-.282z" fill="#b4bcc0"/><path d="m5.759 4.349c-.397 0-.771.238-.928.63l-2.52 6.299c-.205.513.044 1.095.557 1.3.123.049.249.072.372.072.06 0 .12-.005.178-.016.331-.06.62-.287.751-.613l.057-.143 2.462-6.156c.025-.063.043-.127.055-.191.037-.2.011-.402-.067-.581-.101-.233-.291-.427-.545-.529-.122-.048-.248-.072-.372-.072z" fill="#b4bcc0"/><path d="m6.5 6c-1.378 0-2.5-1.122-2.5-2.5s1.122-2.5 2.5-2.5 2.5 1.122 2.5 2.5-1.122 2.5-2.5 2.5z" fill="#2196f3"/><path d="m18.5 5c-1.378 0-2.5-1.122-2.5-2.5s1.122-2.5 2.5-2.5 2.5 1.122 2.5 2.5-1.122 2.5-2.5 2.5z" fill="#2196f3"/><path d="m21.5 13c-1.378 0-2.5-1.122-2.5-2.5s1.122-2.5 2.5-2.5 2.5 1.122 2.5 2.5-1.122 2.5-2.5 2.5z" fill="#2196f3"/><path d="m19 16.42v3.955.013c0 2.353-1.953 3.612-4.327 3.612h-1.673c-1.68-.013-2.993-1.153-4-3.955-1.007-2.801-2-2.465-2-3.295 0-.303.334-.659 1.334-.659 1.586 0 2.666 1.978 2.666 1.978v-7.58c0-.548.447-.989 1-.989s1 .441 1 .989v3.955c0-.561.47-.989 1-.989.553 0 1 .441 1 .989v.659c0-.56.47-.988 1-.988.553 0 1 .441 1 .988v1.318c0-.56.47-.989 1-.989.553 0 1 .442 1 .988z" fill="#ffcc80"/><path d="m17.333 15.689v3.038c-.187 0-.333-.145-.333-.329v-1.978c0-.29.126-.553.333-.731z" fill="#ffa726"/><path d="m15.333 14.371v3.698c-.187 0-.333-.145-.333-.33v-2.637c0-.29.126-.553.333-.731z" fill="#ffa726"/><path d="m13.333 13.711v3.698c-.187 0-.334-.145-.334-.33v-2.636c.001-.29.127-.553.334-.732z" fill="#ffa726"/><path d="m13 14.44v.003c0-.001 0-.002 0-.003zm0-.003v.003c0-.001 0-.002 0-.003zm0-.004v.003c0-.001 0-.002 0-.003zm0-.003v.003c0-.001 0-.002 0-.003zm0-.004v.003c0-.001 0-.002 0-.003zm.018-.172c-.011.055-.017.113-.018.172.001-.058.007-.116.018-.172zm.001-.002v.002c0-.001 0-.002 0-.002zm-1.019-4.752c-.553 0-1 .441-1 .989v7.58s-1.08-1.978-2.666-1.978c-1 0-1.334.356-1.334.659 0 .831.993.494 2 3.295s2.32 3.941 4 3.955h1v-10.545c-.328 0-.633.164-.817.422.044-.061.095-.116.151-.165v3.698c-.187 0-.334-.145-.334-.33v-2.636-3.955c0-.548-.447-.989-1-.989z" fill="#deb26f"/><path d="m13.333 13.711c-.057.049-.108.104-.151.165-.079.11-.135.236-.163.373v.001.002.002.001c-.011.056-.017.113-.018.172v.003.003.003.003.003 2.636c0 .185.146.33.334.33v-3.697z" fill="#de9121"/><path d="m2.5 16c-1.378 0-2.5-1.122-2.5-2.5s1.122-2.5 2.5-2.5 2.5 1.122 2.5 2.5-1.122 2.5-2.5 2.5z" fill="#2196f3"/><path d="m2.5 11c-1.378 0-2.5 1.122-2.5 2.5s1.122 2.5 2.5 2.5z" fill="#1d83d4"/><path d="m6.5 1c-1.378 0-2.5 1.122-2.5 2.5s1.122 2.5 2.5 2.5z" fill="#1d83d4"/><path d="m18.5 0c-1.378 0-2.5 1.122-2.5 2.5s1.122 2.5 2.5 2.5z" fill="#1d83d4"/><path d="m21.5 8c-1.378 0-2.5 1.122-2.5 2.5s1.122 2.5 2.5 2.5z" fill="#1d83d4"/></svg>