<?xml version="1.0" encoding="iso-8859-1"?>
<!-- Generator: Adobe Illustrator 16.0.0, SVG Export Plug-In . SVG Version: 6.00 Build 0)  -->
<!DOCTYPE svg PUBLIC "-//W3C//DTD SVG 1.1//EN" "http://www.w3.org/Graphics/SVG/1.1/DTD/svg11.dtd">
<svg version="1.1" id="Capa_1" xmlns="http://www.w3.org/2000/svg" xmlns:xlink="http://www.w3.org/1999/xlink" x="0px" y="0px"
	 width="27.914px" height="27.914px" viewBox="0 0 27.914 27.914" style="enable-background:new 0 0 27.914 27.914;"
	 xml:space="preserve">
<g>
	<g>
		<path d="M17.814,18.104c-0.686-2.479-0.686-3.427,0-5.905c2.34-0.884,6.833-2.667,7.856-3.692
			c1.399-1.399,1.399-3.669-0.001-5.068c-1.398-1.399-3.668-1.399-5.067,0c-1.025,1.024-2.808,5.516-3.692,7.856
			c-2.478,0.686-3.426,0.686-5.906,0c-0.885-2.341-2.667-6.831-3.69-7.855c-1.4-1.399-3.669-1.399-5.069,0
			c-1.399,1.399-1.399,3.669,0,5.068c1.024,1.025,5.516,2.808,7.857,3.692c0.685,2.478,0.685,3.427-0.001,5.904
			c-2.341,0.886-6.832,2.668-7.855,3.691c-1.399,1.4-1.399,3.668,0,5.069c1.399,1.399,3.669,1.399,5.069,0
			c1.023-1.024,2.807-5.517,3.69-7.857c2.479-0.685,3.427-0.684,5.906,0.001c0.884,2.342,2.667,6.832,3.69,7.856
			c1.399,1.399,3.669,1.399,5.068,0c1.4-1.4,1.4-3.668,0-5.068C24.646,20.77,20.155,18.988,17.814,18.104z"/>
		<ellipse cx="13.958" cy="3.583" rx="2.986" ry="3.583"/>
	</g>
</g>
<g>
</g>
<g>
</g>
<g>
</g>
<g>
</g>
<g>
</g>
<g>
</g>
<g>
</g>
<g>
</g>
<g>
</g>
<g>
</g>
<g>
</g>
<g>
</g>
<g>
</g>
<g>
</g>
<g>
</g>
</svg>
