<svg height="512" viewBox="0 0 64 64" width="512" xmlns="http://www.w3.org/2000/svg"><g id="Expand-maximize-resize-arrow-transfer-exchange"><path d="m59.34 39.54 1.66 21.46-21.46-1.66 5.66-5.65-11.04-5.73 13.8-13.8 5.73 11.04z" fill="#78b9eb"/><path d="m29.84 16.04-13.8 13.8-5.73-11.04-5.65 5.66-1.66-21.46 21.46 1.66-5.66 5.65z" fill="#78b9eb"/><g fill="#006df0"><path d="m16.749 33.452a1 1 0 0 0 -1.595.247l-5.1 9.829-4.69-4.691a1 1 0 0 0 -1.7.63l-1.664 21.456a1 1 0 0 0 1 1.077h.077l21.456-1.66a1 1 0 0 0 .63-1.7l-4.691-4.691 9.83-5.1a1 1 0 0 0 .246-1.595zm1.589 19.348a1 1 0 0 0 -.246 1.595l4.12 4.12-18.125 1.4 1.4-18.125 4.119 4.12a1 1 0 0 0 1.6-.246l5.1-9.83 11.862 11.866z"/><path d="m59.689 38.606a.994.994 0 0 0 -1.053.231l-4.691 4.691-5.1-9.829a1 1 0 0 0 -1.595-.247l-13.8 13.8a1 1 0 0 0 .246 1.595l9.83 5.1-4.691 4.691a1 1 0 0 0 .63 1.7l21.458 1.662h.077a1 1 0 0 0 1-1.077l-1.66-21.456a1 1 0 0 0 -.651-.861zm-17.9 19.908 4.12-4.12a1 1 0 0 0 -.246-1.595l-9.83-5.1 11.867-11.867 5.1 9.83a1 1 0 0 0 1.595.246l4.119-4.12 1.4 18.125z"/><path d="m47.251 30.548a1 1 0 0 0 .707.293.964.964 0 0 0 .152-.012 1 1 0 0 0 .736-.528l5.1-9.829 4.691 4.691a1 1 0 0 0 1.7-.63l1.663-21.456a1 1 0 0 0 -.29-.784.984.984 0 0 0 -.787-.293l-21.456 1.66a1 1 0 0 0 -.63 1.7l4.691 4.691-9.83 5.1a1 1 0 0 0 -.246 1.595zm-1.589-19.348a1 1 0 0 0 .246-1.6l-4.12-4.12 18.125-1.4-1.4 18.125-4.119-4.12a1 1 0 0 0 -1.595.246l-5.1 9.83-11.867-11.861z"/><path d="m30.3 15.154-9.83-5.1 4.691-4.691a1 1 0 0 0 -.63-1.7l-21.454-1.663a1 1 0 0 0 -1.077 1.077l1.66 21.456a1 1 0 0 0 1.7.63l4.691-4.691 5.1 9.829a1 1 0 0 0 .736.528.964.964 0 0 0 .152.012 1 1 0 0 0 .707-.293l13.8-13.8a1 1 0 0 0 -.246-1.595zm-14 13.014-5.1-9.83a1 1 0 0 0 -.735-.527.986.986 0 0 0 -.153-.012 1 1 0 0 0 -.707.293l-4.119 4.12-1.399-18.125 18.125 1.4-4.12 4.12a1 1 0 0 0 .246 1.6l9.83 5.1z"/></g></g></svg>