<svg id="Capa_1" enable-background="new 0 0 512.013 512.013" height="512" viewBox="0 0 512.013 512.013" width="512" xmlns="http://www.w3.org/2000/svg"><g><path d="m323.583 333.487-17.94 24.05-49.63-37.22-49.63 37.23-17.93-24.05 52.56-39.43v-65.05h30v65.05z" fill="#3e5157"/><path d="m323.583 333.487-17.94 24.05-49.63-37.22v-91.3h15v65.05z" fill="#28373b"/><path d="m297.157 20.425c-5.857-5.858-15.355-5.858-21.213 0l-19.343 19.343-19.931-19.93c-5.857-5.858-15.355-5.858-21.213 0s-5.858 15.355 0 21.213l26.145 26.145v24.375c0 8.284 6.716 15 15 15s15-6.716 15-15v-24.376l25.556-25.557c5.857-5.858 5.857-15.355-.001-21.213z" fill="#0acefa"/><path d="m297.153 41.637-25.55 25.56v24.37c0 8.29-6.72 15-15 15-.2 0-.4 0-.59-.02v-67.37l.59.59 19.34-19.34c5.86-5.86 15.36-5.86 21.21 0 5.86 5.86 5.86 15.35 0 21.21z" fill="#00adea"/><path d="m75.013 466.569h-23.786l34.393-34.394c9.418-9.418 2.746-25.606-10.606-25.606h-59.9c-8.284 0-15 6.716-15 15s6.716 15 15 15h23.686l-34.393 34.394c-9.418 9.418-2.746 25.606 10.606 25.606h60c8.284 0 15-6.716 15-15s-6.715-15-15-15z" fill="#fa4954"/><path d="m507.62 470.913-19.394-19.394 19.344-19.344c5.858-5.858 5.858-15.355 0-21.213-5.857-5.858-15.355-5.858-21.213 0l-19.344 19.344-19.344-19.344c-5.857-5.858-15.355-5.858-21.213 0s-5.858 15.355 0 21.213l19.344 19.345-19.443 19.443c-5.858 5.858-5.858 15.355 0 21.213 5.857 5.858 15.355 5.859 21.213 0l19.443-19.443 19.394 19.394c5.857 5.858 15.355 5.859 21.213 0s5.858-15.356 0-21.214z" fill="#f9c301"/><path d="m313.522 210.746-45.018-68.018c-5.909-8.929-19.076-8.981-25.019.003l-44.982 68c-6.568 9.928.531 23.274 12.507 23.276.148 0 90.152.018 90.003.018 11.908 0 19.121-13.29 12.509-23.279z" fill="#0acefa"/><path d="m301.013 234.027c.08 0-22.46-.01-45-.01v-98.01c4.77.01 9.54 2.26 12.49 6.72l45.02 68.02c6.61 9.99-.6 23.28-12.51 23.28z" fill="#00adea"/><path d="m391.204 387.149-27.638-76.704c-4.029-11.182-18.964-13.501-26.137-3.882l-53.8 72.149c-7.108 9.533-.795 23.273 11.188 23.943 57.709 3.222 81.623 4.578 82.278 4.578 10.393.001 17.624-10.327 14.109-20.084z" fill="#f9c301"/><path d="m228.398 378.713-53.8-72.149c-7.12-9.548-22.078-7.383-26.137 3.882l-27.638 76.704c-3.523 9.776 3.739 20.085 14.11 20.085.279 0 .559-.008.839-.023l81.438-4.555c11.874-.665 18.363-14.322 11.188-23.944z" fill="#fa4954"/></g></svg>