<svg height="512pt" viewBox="0 0 512 512" width="512pt" xmlns="http://www.w3.org/2000/svg"><path d="m416.667969 0h-321.335938c-52.566406 0-95.332031 42.765625-95.332031 95.335938v321.332031c0 52.566406 42.765625 95.332031 95.332031 95.332031h321.335938c52.566406 0 95.332031-42.765625 95.332031-95.332031v-321.332031c0-52.570313-42.765625-95.335938-95.332031-95.335938zm-40.167969 190.667969c-9.769531 0-18.949219-2.566407-26.914062-7.039063l-78.585938 78.585938v61.210937c23.148438 6.550781 40.167969 27.855469 40.167969 53.074219 0 30.417969-24.75 55.167969-55.167969 55.167969s-55.167969-24.75-55.167969-55.167969c0-25.21875 17.019531-46.523438 40.167969-53.074219v-61.210937l-78.585938-78.585938c-7.964843 4.476563-17.144531 7.039063-26.914062 7.039063-30.417969 0-55.167969-24.75-55.167969-55.167969s24.75-55.164062 55.167969-55.164062 55.167969 24.746093 55.167969 55.164062c0 9.769531-2.566407 18.949219-7.039063 26.914062l72.371094 72.371094 72.371094-72.371094c-4.476563-7.964843-7.039063-17.144531-7.039063-26.914062 0-30.417969 24.75-55.164062 55.167969-55.164062s55.167969 24.746093 55.167969 55.164062-24.75 55.167969-55.167969 55.167969zm0 0"/></svg>