<svg id="Icon_Set" height="512" viewBox="0 0 256 256" width="512" xmlns="http://www.w3.org/2000/svg"><g><g><g><g fill="#87828e"><path d="m211.795 83.547h11.896v45.813h-11.896z" transform="matrix(0 -1 1 0 111.29 324.197)"/><path d="m100.918 133.742v-54.601c0-2.348 1.903-4.251 4.251-4.251h6.843c2.348 0 4.251 1.903 4.251 4.251v54.602c0 2.348-1.903 4.251-4.251 4.251h-6.843c-2.348-.001-4.251-1.904-4.251-4.252z"/><path d="m19.481 83.184h23.448v46.515h-23.448z" transform="matrix(0 -1 1 0 -75.237 137.646)"/><path d="m69.801 79.141v54.602c0 2.348-1.903 4.251-4.251 4.251h-6.843c-2.348 0-4.251-1.903-4.251-4.251v-54.602c0-2.348 1.903-4.251 4.251-4.251h6.843c2.348 0 4.251 1.903 4.251 4.251z"/><path d="m116.258 94.717v23.448h70.714v.012h11.132c2.348 0 4.251-1.903 4.251-4.251v-14.946c0-2.348-1.903-4.251-4.251-4.251h-10.786v-.012z"/><path d="m248.049 69.497v73.912c0 2.348-1.903 4.251-4.251 4.251h-5.018c-2.348 0-4.251-1.903-4.251-4.251v-73.912c0-2.348 1.903-4.251 4.251-4.251h5.018c2.347.001 4.251 1.904 4.251 4.251z"/></g><path d="m7.95 105.411h46.512v12.752h-46.512z" fill="#a4a4a5"/><path d="m58.704 74.891h6.844c2.346 0 4.251 1.904 4.251 4.251v12.752c0-2.346-1.904-4.251-4.251-4.251h-6.844c-2.346 0-4.251 1.904-4.251 4.251v-12.752c.001-2.347 1.905-4.251 4.251-4.251z" fill="#796e84"/><path d="m69.799 120.986v12.752c0 2.355-1.904 4.251-4.251 4.251h-6.844c-2.346 0-4.251-1.896-4.251-4.251v-12.752c0 2.355 1.904 4.251 4.251 4.251h6.844c2.346 0 4.251-1.896 4.251-4.251z" fill="#a4a4a5"/><path d="m105.168 74.891h6.844c2.346 0 4.251 1.904 4.251 4.251v12.752c0-2.346-1.904-4.251-4.251-4.251h-6.844c-2.346 0-4.251 1.904-4.251 4.251v-12.752c.001-2.347 1.905-4.251 4.251-4.251z" fill="#796e84"/><path d="m116.263 120.986v12.752c0 2.355-1.904 4.251-4.251 4.251h-6.844c-2.346 0-4.251-1.896-4.251-4.251v-12.752c0 2.355 1.904 4.251 4.251 4.251h6.844c2.347 0 4.251-1.896 4.251-4.251z" fill="#a4a4a5"/><path d="m198.105 105.428h-10.784v-.017h-71.066v12.752h70.718v.017h11.133c2.346 0 4.251-1.904 4.251-4.251v-12.752c-.001 2.347-1.906 4.251-4.252 4.251z" fill="#a4a4a5"/><path d="m238.78 65.25h5.016c2.346 0 4.251 1.896 4.251 4.251v12.752c0-2.355-1.904-4.251-4.251-4.251h-5.016c-2.346 0-4.251 1.896-4.251 4.251v-12.752c0-2.355 1.904-4.251 4.251-4.251z" fill="#796e84"/><path d="m248.046 130.661v12.752c0 2.346-1.904 4.251-4.251 4.251h-5.016c-2.346 0-4.251-1.904-4.251-4.251v-12.752c0 2.346 1.904 4.251 4.251 4.251h5.016c2.347 0 4.251-1.905 4.251-4.251z" fill="#a4a4a5"/><path d="m31.617 74.04h-2.409c-11.738 0-21.254 9.516-21.254 21.254v67.184 7.022c0 11.738 9.516 21.254 21.254 21.254h7.022 122.467 7.022c11.738 0 21.254-9.516 21.254-21.254v-7.022-67.184c0-11.738-9.516-21.254-21.254-21.254h-2.409c-2.547 0-4.613 2.065-4.613 4.613v76.538c0 4.025-3.263 7.287-7.287 7.287h-107.893c-4.025 0-7.287-3.263-7.287-7.287v-76.539c-.001-2.547-2.066-4.612-4.613-4.612z" fill="#87828e"/><path d="m29.204 74.041h2.415c2.542 0 4.608 2.066 4.608 4.608v12.752c0-2.542-2.066-4.608-4.608-4.608h-2.415c-11.732 0-21.254 9.513-21.254 21.254v-12.752c0-11.741 9.522-21.254 21.254-21.254z" fill="#796e84"/><path d="m163.313 74.041h2.406c11.741 0 21.254 9.513 21.254 21.254v12.752c0-11.741-9.513-21.254-21.254-21.254h-2.406c-2.55 0-4.616 2.066-4.616 4.608v-12.752c-.001-2.542 2.065-4.608 4.616-4.608z" fill="#796e84"/><path d="m186.972 156.744v12.752c0 11.741-9.513 21.254-21.254 21.254h-136.514c-11.732 0-21.254-9.513-21.254-21.254v-12.752c0 11.741 9.522 21.254 21.254 21.254h136.514c11.741-.001 21.254-9.514 21.254-21.254z" fill="#a4a4a5"/></g></g><path d="m243.798 61.247h-5.018c-4.55 0-8.251 3.701-8.251 8.251v27.008h-24.554c-1.054-3.344-4.183-5.776-7.871-5.776h-7.552c-2.155-11.753-12.466-20.69-24.833-20.69h-2.41c-4.749 0-8.612 3.864-8.612 8.613v12.064h-34.433v-11.576c0-4.55-3.701-8.251-8.251-8.251h-6.843c-4.549 0-8.25 3.701-8.25 8.251v54.602c0 4.55 3.701 8.251 8.25 8.251h6.843c4.55 0 8.251-3.701 8.251-8.251v-11.579h34.433v33.027c0 1.813-1.475 3.287-3.287 3.287h-107.893c-1.813 0-3.287-1.475-3.287-3.287v-33.027h10.227v11.579c0 4.55 3.701 8.251 8.251 8.251h6.843c4.549 0 8.25-3.701 8.25-8.251v-54.602c0-4.549-3.701-8.25-8.25-8.25h-6.843c-4.55 0-8.251 3.701-8.251 8.25v11.576h-10.228v-12.065c0-4.749-3.864-8.613-8.613-8.613h-2.409c-13.652 0-24.8 10.89-25.233 24.438-.033.546-.021 74.476-.021 75.022 0 13.925 11.329 25.254 25.254 25.254h136.511c13.925 0 25.254-11.329 25.254-25.254v-47.322h7.131c3.688 0 6.818-2.433 7.871-5.777h24.554v27.009c0 4.55 3.701 8.251 8.251 8.251h5.018c4.55 0 8.251-3.701 8.251-8.251v-73.911c.001-4.55-3.7-8.251-8.25-8.251zm-118.521 52.917 13.985-15.447h10.426l-13.985 15.447zm3.193-15.448-8.207 9.065v-9.065zm-16.458 35.277h-6.843c-.138 0-.25-.113-.25-.251v-54.601c0-.138.112-.251.25-.251h6.843c.138 0 .251.113.251.251v54.602c0 .137-.113.25-.251.25zm34.482-19.829 8.202-9.059v9.059zm-87.787-35.274h6.843c.138 0 .25.112.25.25v54.602c0 .138-.112.251-.25.251h-6.843c-.138 0-.251-.113-.251-.251 0-1.693 0-52.359 0-54.602 0-.138.113-.25.251-.25zm-8.251 19.826v15.447h-10.227v-15.447zm132.516 70.784c0 9.514-7.74 17.254-17.254 17.254h-136.511c-9.514 0-17.254-7.74-17.254-17.254v-74.207c0-9.514 7.74-17.254 17.254-17.254h2.409c.338 0 .613.275.613.613v76.538c0 6.224 5.063 11.287 11.287 11.287h107.893c6.224 0 11.287-5.063 11.287-11.287v-76.538c0-.338.275-.613.612-.613h2.41c9.514 0 17.254 7.74 17.254 17.254zm15.382-55.573c0 .138-.113.25-.251.25h-6.783v-15.448h6.783c.138 0 .251.112.251.25zm8-5.527v-3.894h24.174v3.894zm37.695 35.009c0 .138-.113.251-.251.251h-5.018c-.138 0-.251-.113-.251-.251v-73.911c0-.138.113-.251.251-.251h5.018c.138 0 .251.113.251.251z" fill="#5f266d"/></g></svg>