<svg height="512pt" viewBox="0 0 512 512" width="512pt" xmlns="http://www.w3.org/2000/svg"><path d="m42.667969 8.535156h324.265625c18.851562 0 34.132812 15.28125 34.132812 34.132813v426.664062c0 18.851563-15.28125 34.132813-34.132812 34.132813h-324.265625c-18.851563 0-34.132813-15.28125-34.132813-34.132813v-426.664062c0-18.851563 15.28125-34.132813 34.132813-34.132813zm0 0" fill="#283593"/><path d="m42.667969 8.535156h298.664062c18.851563 0 34.132813 15.28125 34.132813 34.132813v426.664062c0 18.851563-15.28125 34.132813-34.132813 34.132813h-298.664062c-18.851563 0-34.132813-15.28125-34.132813-34.132813v-426.664062c0-18.851563 15.28125-34.132813 34.132813-34.132813zm0 0" fill="#3f51b5"/><path d="m329.421875 281.148438 14.660156 14.664062c6.640625 6.675781 6.640625 17.460938 0 24.136719l-24.132812 24.132812c-6.675781 6.640625-17.460938 6.640625-24.136719 0l-14.664062-14.660156zm0 0" fill="#cfd8dc"/><path d="m319.949219 344.085938 24.136719-24.136719 30.167968 30.167969-24.136718 24.136718zm0 0" fill="#545c60"/><path d="m500.992188 464.726562-36.265626 36.265626c-1.59375 1.597656-3.761718 2.496093-6.015624 2.496093-2.257813 0-4.421876-.898437-6.019532-2.496093l-36.265625-36.265626-12.03125-12.035156-24.148437-24.148437-30.125-30.121094c-6.65625-6.675781-6.65625-17.476563 0-24.148437l19.800781-19.796876 4.351563-4.355468c6.671874-6.65625 17.472656-6.65625 24.148437 0l5.972656 6.058594h.085938l12.03125 12.035156 36.179687 36.179687 12.035156 12.03125v.085938l12.117188 12.03125 12.03125 12.03125v.085937l12.117188 12.03125c1.597656 1.597656 2.496093 3.761719 2.496093 6.019532 0 2.253906-.898437 4.421874-2.496093 6.015624zm0 0" fill="#fec108"/><path d="m479.660156 473.257812-27.308594 27.394532-35.925781-35.925782-12.03125-12.035156-24.148437-24.148437-30.125-30.121094c-6.65625-6.675781-6.65625-17.476563 0-24.148437l19.800781-19.796876c2.71875.726563 5.191406 2.171876 7.167969 4.179688l5.972656 6.058594h.085938l36.179687 36.179687 12.03125 12.035157 12.03125 12.03125v.085937l12.117187 12.03125 12.035157 12.03125v.085937l12.117187 12.03125c1.597656 1.59375 2.496094 3.757813 2.496094 6.015626 0 2.257812-.898438 4.421874-2.496094 6.015624zm0 0" fill="#ffdc00"/><path d="m307.882812 307.882812c-56.644531 56.628907-148.46875 56.621094-205.105468-.019531-56.632813-56.636719-56.632813-148.464843 0-205.105469 56.636718-56.636718 148.460937-56.644531 205.105468-.015624 27.320313 27.140624 42.683594 64.058593 42.683594 102.570312 0 38.507812-15.363281 75.429688-42.683594 102.570312zm0 0" fill="#707070"/><path d="m282.28125 307.882812c-24.023438 24.144532-55.832031 38.992188-89.769531 41.898438-74.859375-6.617188-132.261719-69.320312-132.261719-144.46875 0-75.152344 57.402344-137.851562 132.261719-144.46875 56.128906 4.957031 104.300781 41.976562 123.546875 94.933594 19.242187 52.957031 6.074218 112.269531-33.777344 152.105468zm0 0" fill="#9e9e9e"/><path d="m316.738281 205.300781c0 61.546875-49.890625 111.4375-111.4375 111.4375-61.542969 0-111.433593-49.890625-111.433593-111.4375 0-61.542969 49.890624-111.433593 111.433593-111.433593 61.546875 0 111.4375 49.890624 111.4375 111.433593zm0 0" fill="#95a5a5"/><path d="m277.675781 277.675781c-39.988281 39.980469-104.8125 39.976563-144.796875-.007812s-39.984375-104.8125 0-144.796875 104.808594-39.988282 144.796875-.007813c12.917969 12.84375 22.117188 28.945313 26.621094 46.59375 9.234375 35.144531-.902344 72.546875-26.621094 98.21875zm0 0" fill="#0377bc"/><path d="m252.074219 277.675781c-16.046875 16.09375-37.011719 26.367188-59.5625 29.183594-51.214844-6.425781-89.640625-49.972656-89.640625-101.589844 0-51.617187 38.425781-95.164062 89.640625-101.589843 22.550781 2.816406 43.515625 13.089843 59.5625 29.183593 12.917969 12.84375 22.117187 28.945313 26.625 46.59375 9.234375 35.144531-.90625 72.546875-26.625 98.21875zm0 0" fill="#02a9f4"/><path d="m366.933594 512h-324.265625c-23.554688-.027344-42.6406252-19.113281-42.667969-42.667969v-426.664062c.0273438-23.554688 19.113281-42.6406252 42.667969-42.667969h324.265625c23.550781.0273438 42.636718 19.113281 42.667968 42.667969v310.101562c0 4.710938-3.820312 8.53125-8.535156 8.53125-4.710937 0-8.53125-3.820312-8.53125-8.53125v-310.101562c-.015625-14.132813-11.46875-25.585938-25.601562-25.601563h-324.265625c-14.132813.015625-25.585938 11.46875-25.601563 25.601563v426.664062c.015625 14.132813 11.46875 25.585938 25.601563 25.601563h324.265625c14.132812-.015625 25.585937-11.46875 25.601562-25.601563v-19.964843c0-4.714844 3.820313-8.535157 8.53125-8.535157 4.714844 0 8.535156 3.820313 8.535156 8.535157v19.964843c-.03125 23.554688-19.117187 42.640625-42.667968 42.667969zm0 0"/><path d="m307.882812 357.605469c-6.789062.011719-13.304687-2.683594-18.101562-7.488281l-14.667969-14.664063c-2.210937-2.144531-3.09375-5.3125-2.308593-8.292969.78125-2.976562 3.105468-5.304687 6.085937-6.085937 2.976563-.78125 6.148437.101562 8.292969 2.3125l14.660156 14.664062c3.339844 3.320313 8.734375 3.320313 12.070312 0l24.132813-24.132812c3.328125-3.335938 3.328125-8.734375 0-12.070313l-14.660156-14.664062c-2.1875-2.148438-3.058594-5.308594-2.273438-8.273438.785157-2.964844 3.101563-5.28125 6.066407-6.066406 2.964843-.785156 6.125.082031 8.273437 2.269531l14.664063 14.664063c9.984374 10.003906 9.984374 26.199218 0 36.203125l-24.132813 24.132812c-4.796875 4.804688-11.3125 7.5-18.101563 7.492188zm0 0"/><path d="m350.117188 382.789062c-2.265626 0-4.4375-.898437-6.035157-2.5l-30.164062-30.171874c-3.332031-3.332032-3.332031-8.734376 0-12.066407l24.132812-24.132812c3.332031-3.332031 8.734375-3.332031 12.066407 0l30.171874 30.164062c3.230469 3.351563 3.1875 8.671875-.105468 11.964844-3.292969 3.289063-8.613282 3.335937-11.960938.101563l-24.140625-24.132813-12.066406 12.066406 24.132813 24.140625c2.441406 2.4375 3.171874 6.109375 1.851562 9.296875s-4.433594 5.265625-7.882812 5.269531zm0 0"/><path d="m458.730469 511.992188c-4.527344.007812-8.871094-1.789063-12.066407-4.992188l-102.582031-102.570312c-9.976562-10.003907-9.976562-26.199219 0-36.203126l24.140625-24.136718c10.003906-9.980469 26.199219-9.980469 36.203125 0l102.570313 102.582031c6.652344 6.667969 6.652344 17.464844 0 24.132813l-36.203125 36.203124c-3.199219 3.199219-7.539063 4.992188-12.0625 4.984376zm-72.410157-158.339844c-2.261718 0-4.433593.898437-6.03125 2.496094l-24.140624 24.140624c-3.324219 3.335938-3.324219 8.734376.003906 12.070313l102.578125 102.574219 36.210937-36.214844-102.578125-102.570312c-1.601562-1.601563-3.777343-2.5-6.042969-2.496094zm0 0"/><path d="m362.1875 418.992188c-3.453125 0-6.5625-2.082032-7.882812-5.269532-1.320313-3.1875-.589844-6.855468 1.847656-9.296875l18.101562-18.105469c3.347656-3.246093 8.679688-3.207031 11.976563.089844s3.335937 8.628906.089843 11.976563l-18.097656 18.105469c-1.601562 1.601562-3.773437 2.503906-6.035156 2.5zm0 0"/><path d="m404.425781 376.753906c-3.453125 0-6.5625-2.078125-7.882812-5.265625-1.320313-3.191406-.59375-6.859375 1.847656-9.300781l6.035156-6.035156c2.144531-2.207032 5.3125-3.09375 8.292969-2.308594 2.976562.78125 5.304688 3.105469 6.085938 6.085938.78125 2.976562-.101563 6.148437-2.3125 8.292968l-6.035157 6.03125c-1.597656 1.601563-3.769531 2.503906-6.03125 2.5zm0 0"/><path d="m386.320312 443.125c-3.449218 0-6.5625-2.078125-7.882812-5.269531-1.320312-3.1875-.589844-6.855469 1.851562-9.296875l18.101563-18.101563c2.144531-2.210937 5.3125-3.09375 8.292969-2.3125 2.976562.785157 5.304687 3.109375 6.085937 6.089844.78125 2.976563-.101562 6.144531-2.3125 8.289063l-18.101562 18.101562c-1.597657 1.601562-3.769531 2.503906-6.035157 2.5zm0 0"/><path d="m428.558594 400.886719c-3.449219 0-6.5625-2.078125-7.882813-5.265625-1.320312-3.191406-.589843-6.859375 1.847657-9.300782l6.035156-6.03125c3.347656-3.246093 8.679687-3.207031 11.976562.089844s3.335938 8.628906.089844 11.976563l-6.035156 6.03125c-1.597656 1.601562-3.769532 2.503906-6.03125 2.5zm0 0"/><path d="m410.457031 467.261719c-3.449219 0-6.558593-2.078125-7.878906-5.265625-1.320313-3.191406-.59375-6.859375 1.847656-9.300782l18.097657-18.097656c3.34375-3.261718 8.691406-3.226562 11.992187.074219s3.335937 8.648437.074219 11.992187l-18.097656 18.097657c-1.597657 1.605469-3.769532 2.503906-6.035157 2.5zm0 0"/><path d="m452.691406 425.023438c-3.449218 0-6.558594-2.078126-7.878906-5.265626s-.59375-6.859374 1.847656-9.300781l6.03125-6.03125c2.144532-2.210937 5.316406-3.09375 8.292969-2.3125 2.980469.78125 5.304687 3.109375 6.085937 6.085938.785157 2.980469-.097656 6.148437-2.308593 8.292969l-6.035157 6.03125c-1.597656 1.605468-3.769531 2.503906-6.035156 2.5zm0 0"/><path d="m434.589844 491.398438c-3.449219 0-6.558594-2.078126-7.878906-5.265626-1.320313-3.1875-.59375-6.859374 1.847656-9.300781l18.105468-18.101562c2.144532-2.210938 5.3125-3.09375 8.289063-2.3125 2.980469.78125 5.304687 3.109375 6.089844 6.085937.78125 2.980469-.101563 6.148438-2.3125 8.292969l-18.105469 18.101563c-1.597656 1.605468-3.769531 2.503906-6.035156 2.5zm0 0"/><path d="m476.832031 449.164062c-3.449219 0-6.5625-2.078124-7.882812-5.269531-1.324219-3.1875-.59375-6.859375 1.847656-9.296875l6.03125-6.039062c3.332031-3.335938 8.738281-3.335938 12.070313-.003906 3.335937 3.332031 3.339843 8.734374.007812 12.070312l-6.035156 6.039062c-1.601563 1.601563-3.773438 2.5-6.039063 2.5zm0 0"/><path d="m205.300781 358.90625c-69.519531-.003906-130.371093-46.695312-148.367187-113.847656-17.992188-67.152344 11.363281-138.015625 71.566406-172.777344 60.207031-34.757812 136.253906-24.746094 185.414062 24.410156 43.929688 43.929688 57.070313 109.996094 33.296876 167.394532-23.777344 57.394531-79.785157 94.820312-141.910157 94.820312zm0-290.136719c-65.140625 0-121.210937 46.015625-133.917969 109.902344-12.707031 63.886719 21.480469 127.855469 81.664063 152.785156 60.179687 24.925781 129.589844 3.871094 165.78125-50.289062 36.1875-54.160157 29.078125-126.34375-16.980469-172.40625-25.550781-25.691407-60.316406-40.09375-96.546875-39.996094zm0 0"/><path d="m205.300781 316.1875c-52.839843-.054688-98.285156-37.417969-108.550781-89.246094-10.269531-51.832031 17.496094-103.699218 66.320312-123.894531 48.828126-20.195313 105.121094-3.09375 134.464844 40.84375 29.34375 43.941406 23.570313 102.488281-13.792968 139.851563-20.765626 20.859374-49.011719 32.542968-78.441407 32.445312zm0-204.703125c-42.449219.03125-79.589843 28.558594-90.5625 69.566406-10.972656 41.003907 6.953125 84.269531 43.710938 105.496094 36.761719 21.230469 83.195312 15.128906 113.226562-14.871094 26.859375-26.835937 34.898438-67.210937 20.363281-102.285156-14.53125-35.074219-48.773437-57.933594-86.738281-57.90625zm0 0"/><path d="m119.464844 418.132812c-4.710938 0-8.53125-3.820312-8.53125-8.53125v-34.136718c0-4.710938 3.820312-8.53125 8.53125-8.53125 4.714844 0 8.535156 3.820312 8.535156 8.53125v34.136718c0 4.710938-3.820312 8.53125-8.535156 8.53125zm0 0"/><path d="m204.800781 418.132812c-4.714843 0-8.535156-3.820312-8.535156-8.53125v-34.136718c0-4.710938 3.820313-8.53125 8.535156-8.53125 4.710938 0 8.53125 3.820312 8.53125 8.53125v34.136718c0 4.710938-3.820312 8.53125-8.53125 8.53125zm0 0"/><path d="m290.132812 418.132812c-4.710937 0-8.53125-3.820312-8.53125-8.53125v-34.136718c0-4.710938 3.820313-8.53125 8.53125-8.53125 4.714844 0 8.535157 3.820312 8.535157 8.53125v34.136718c0 4.710938-3.820313 8.53125-8.535157 8.53125zm0 0"/><path d="m76.800781 418.132812c-14.140625 0-25.601562-11.460937-25.601562-25.597656 0-14.140625 11.460937-25.601562 25.601562-25.601562 14.136719 0 25.597657 11.460937 25.597657 25.601562-.015626 14.128906-11.464844 25.582032-25.597657 25.597656zm0-34.132812c-4.714843 0-8.535156 3.820312-8.535156 8.535156 0 4.710938 3.820313 8.53125 8.535156 8.53125 4.710938 0 8.53125-3.820312 8.53125-8.53125-.003906-4.710937-3.820312-8.527344-8.53125-8.535156zm0 0"/><path d="m119.464844 93.867188c-4.710938 0-8.53125-3.820313-8.53125-8.535157v-34.132812c0-4.710938 3.820312-8.53125 8.53125-8.53125 4.714844 0 8.535156 3.820312 8.535156 8.53125v34.132812c0 4.714844-3.820312 8.535157-8.535156 8.535157zm0 0"/><path d="m153.601562 78.25c-4.714843 0-8.535156-3.820312-8.535156-8.53125v-18.519531c0-4.710938 3.820313-8.53125 8.535156-8.53125 4.710938 0 8.53125 3.820312 8.53125 8.53125v18.519531c0 4.710938-3.820312 8.53125-8.53125 8.53125zm0 0"/><path d="m187.734375 69.886719c-4.714844 0-8.535156-3.820313-8.535156-8.53125v-10.15625c0-4.710938 3.820312-8.53125 8.535156-8.53125 4.710937 0 8.53125 3.820312 8.53125 8.53125v10.15625c0 4.710937-3.820313 8.53125-8.53125 8.53125zm0 0"/><path d="m221.867188 69.800781c-4.714844 0-8.535157-3.820312-8.535157-8.53125v-10.070312c0-4.710938 3.820313-8.53125 8.535157-8.53125 4.710937 0 8.53125 3.820312 8.53125 8.53125v10.070312c0 4.710938-3.820313 8.53125-8.53125 8.53125zm0 0"/><path d="m256 77.910156c-4.710938 0-8.535156-3.820312-8.535156-8.535156v-18.175781c0-4.710938 3.824218-8.53125 8.535156-8.53125s8.535156 3.820312 8.535156 8.53125v18.175781c0 4.714844-3.824218 8.535156-8.535156 8.535156zm0 0"/><path d="m76.800781 93.867188c-14.140625 0-25.601562-11.460938-25.601562-25.601563 0-14.136719 11.460937-25.597656 25.601562-25.597656 14.136719 0 25.597657 11.460937 25.597657 25.597656-.015626 14.132813-11.464844 25.585937-25.597657 25.601563zm0-34.132813c-4.714843 0-8.535156 3.820313-8.535156 8.53125 0 4.714844 3.820313 8.535156 8.535156 8.535156 4.710938 0 8.53125-3.820312 8.53125-8.535156-.003906-4.710937-3.820312-8.527344-8.53125-8.53125zm0 0"/><path d="m290.132812 93.867188c-4.710937 0-8.53125-3.820313-8.53125-8.535157v-34.132812c0-4.710938 3.820313-8.53125 8.53125-8.53125 4.714844 0 8.535157 3.820312 8.535157 8.53125v34.132812c0 4.714844-3.820313 8.535157-8.535157 8.535157zm0 0"/><path d="m332.800781 93.867188c-14.140625 0-25.601562-11.460938-25.601562-25.601563 0-14.136719 11.460937-25.597656 25.601562-25.597656 14.136719 0 25.597657 11.460937 25.597657 25.597656-.015626 14.132813-11.464844 25.585937-25.597657 25.601563zm0-34.132813c-4.714843 0-8.535156 3.820313-8.535156 8.53125 0 4.714844 3.820313 8.535156 8.535156 8.535156 4.710938 0 8.53125-3.820312 8.53125-8.535156-.003906-4.710937-3.820312-8.527344-8.53125-8.53125zm0 0"/><path d="m162.132812 418.132812c-14.136718 0-25.597656-11.460937-25.597656-25.597656 0-14.140625 11.460938-25.601562 25.597656-25.601562 14.140626 0 25.601563 11.460937 25.601563 25.601562-.015625 14.128906-11.46875 25.582032-25.601563 25.597656zm0-34.132812c-4.710937 0-8.53125 3.820312-8.53125 8.535156 0 4.710938 3.820313 8.53125 8.53125 8.53125 4.714844 0 8.535157-3.820312 8.535157-8.53125-.007813-4.710937-3.824219-8.527344-8.535157-8.535156zm0 0"/><path d="m247.464844 418.132812c-14.136719 0-25.597656-11.460937-25.597656-25.597656 0-14.140625 11.460937-25.601562 25.597656-25.601562 14.140625 0 25.601562 11.460937 25.601562 25.601562-.015625 14.128906-11.46875 25.582032-25.601562 25.597656zm0-34.132812c-4.710938 0-8.53125 3.820312-8.53125 8.535156 0 4.710938 3.820312 8.53125 8.53125 8.53125 4.714844 0 8.535156-3.820312 8.535156-8.53125-.007812-4.710937-3.824219-8.527344-8.535156-8.535156zm0 0"/><path d="m204.800781 204.800781c-4.714843 0-8.535156-3.820312-8.535156-8.535156v-34.132813c0-4.710937 3.820313-8.53125 8.535156-8.53125 4.710938 0 8.53125 3.820313 8.53125 8.53125v34.132813c0 4.714844-3.820312 8.535156-8.53125 8.535156zm0 0"/><path d="m162.132812 204.800781c-14.136718 0-25.597656-11.460937-25.597656-25.601562 0-14.136719 11.460938-25.597657 25.597656-25.597657 14.140626 0 25.601563 11.460938 25.601563 25.597657-.015625 14.132812-11.46875 25.585937-25.601563 25.601562zm0-34.132812c-4.710937 0-8.53125 3.820312-8.53125 8.53125 0 4.714843 3.820313 8.535156 8.53125 8.535156 4.714844 0 8.535157-3.820313 8.535157-8.535156-.007813-4.710938-3.824219-8.527344-8.535157-8.53125zm0 0"/><path d="m247.464844 204.800781c-14.136719 0-25.597656-11.460937-25.597656-25.601562 0-14.136719 11.460937-25.597657 25.597656-25.597657 14.140625 0 25.601562 11.460938 25.601562 25.597657-.015625 14.132812-11.46875 25.585937-25.601562 25.601562zm0-34.132812c-4.710938 0-8.53125 3.820312-8.53125 8.53125 0 4.714843 3.820312 8.535156 8.53125 8.535156 4.714844 0 8.535156-3.820313 8.535156-8.535156-.007812-4.710938-3.824219-8.527344-8.535156-8.53125zm0 0"/><path d="m204.800781 264.535156c-4.714843 0-8.535156-3.824218-8.535156-8.535156v-34.132812c0-4.714844 3.820313-8.535157 8.535156-8.535157 4.710938 0 8.53125 3.820313 8.53125 8.535157v34.132812c0 4.710938-3.820312 8.535156-8.53125 8.535156zm0 0"/><path d="m162.132812 264.535156c-14.136718 0-25.597656-11.464844-25.597656-25.601562 0-14.140625 11.460938-25.601563 25.597656-25.601563 14.140626 0 25.601563 11.460938 25.601563 25.601563-.015625 14.132812-11.46875 25.585937-25.601563 25.601562zm0-34.136718c-4.710937 0-8.53125 3.820312-8.53125 8.535156 0 4.710937 3.820313 8.53125 8.53125 8.53125 4.714844 0 8.535157-3.820313 8.535157-8.53125-.007813-4.710938-3.824219-8.527344-8.535157-8.535156zm0 0"/><path d="m247.464844 264.535156c-14.136719 0-25.597656-11.464844-25.597656-25.601562 0-14.140625 11.460937-25.601563 25.597656-25.601563 14.140625 0 25.601562 11.460938 25.601562 25.601563-.015625 14.132812-11.46875 25.585937-25.601562 25.601562zm0-34.136718c-4.710938 0-8.53125 3.820312-8.53125 8.535156 0 4.710937 3.820312 8.53125 8.53125 8.53125 4.714844 0 8.535156-3.820313 8.535156-8.53125-.007812-4.710938-3.824219-8.527344-8.535156-8.535156zm0 0"/><path d="m119.464844 486.398438c-4.710938 0-8.53125-3.820313-8.53125-8.53125v-34.132813c0-4.714844 3.820312-8.535156 8.53125-8.535156 4.714844 0 8.535156 3.820312 8.535156 8.535156v34.132813c0 4.710937-3.820312 8.53125-8.535156 8.53125zm0 0"/><path d="m204.800781 486.398438c-4.714843 0-8.535156-3.820313-8.535156-8.53125v-34.132813c0-4.714844 3.820313-8.535156 8.535156-8.535156 4.710938 0 8.53125 3.820312 8.53125 8.535156v34.132813c0 4.710937-3.820312 8.53125-8.53125 8.53125zm0 0"/><path d="m290.132812 486.398438c-4.710937 0-8.53125-3.820313-8.53125-8.53125v-34.132813c0-4.714844 3.820313-8.535156 8.53125-8.535156 4.714844 0 8.535157 3.820312 8.535157 8.535156v34.132813c0 4.710937-3.820313 8.53125-8.535157 8.53125zm0 0"/><path d="m76.800781 486.398438c-14.140625 0-25.601562-11.460938-25.601562-25.597657 0-14.140625 11.460937-25.601562 25.601562-25.601562 14.136719 0 25.597657 11.460937 25.597657 25.601562-.015626 14.132813-11.464844 25.582031-25.597657 25.597657zm0-34.132813c-4.714843 0-8.535156 3.820313-8.535156 8.535156 0 4.710938 3.820313 8.53125 8.535156 8.53125 4.710938 0 8.53125-3.820312 8.53125-8.53125-.003906-4.710937-3.820312-8.527343-8.53125-8.535156zm0 0"/><path d="m162.132812 486.398438c-14.136718 0-25.597656-11.460938-25.597656-25.597657 0-14.140625 11.460938-25.601562 25.597656-25.601562 14.140626 0 25.601563 11.460937 25.601563 25.601562-.015625 14.132813-11.46875 25.582031-25.601563 25.597657zm0-34.132813c-4.710937 0-8.53125 3.820313-8.53125 8.535156 0 4.710938 3.820313 8.53125 8.53125 8.53125 4.714844 0 8.535157-3.820312 8.535157-8.53125-.007813-4.710937-3.824219-8.527343-8.535157-8.535156zm0 0"/><path d="m247.464844 486.398438c-14.136719 0-25.597656-11.460938-25.597656-25.597657 0-14.140625 11.460937-25.601562 25.597656-25.601562 14.140625 0 25.601562 11.460937 25.601562 25.601562-.015625 14.132813-11.46875 25.582031-25.601562 25.597657zm0-34.132813c-4.710938 0-8.53125 3.820313-8.53125 8.535156 0 4.710938 3.820312 8.53125 8.53125 8.53125 4.714844 0 8.535156-3.820312 8.535156-8.53125-.007812-4.710937-3.824219-8.527343-8.535156-8.535156zm0 0"/><path d="m332.800781 486.398438c-14.140625 0-25.601562-11.460938-25.601562-25.597657 0-14.140625 11.460937-25.601562 25.601562-25.601562 14.136719 0 25.597657 11.460937 25.597657 25.601562-.015626 14.132813-11.464844 25.582031-25.597657 25.597657zm0-34.132813c-4.714843 0-8.535156 3.820313-8.535156 8.535156 0 4.710938 3.820313 8.53125 8.535156 8.53125 4.710938 0 8.53125-3.820312 8.53125-8.53125-.003906-4.710937-3.820312-8.527343-8.53125-8.535156zm0 0"/></svg>