<?xml version="1.0" encoding="iso-8859-1"?>
<!-- Generator: Adobe Illustrator 19.0.0, SVG Export Plug-In . SVG Version: 6.00 Build 0)  -->
<svg version="1.1" id="Capa_1" xmlns="http://www.w3.org/2000/svg" xmlns:xlink="http://www.w3.org/1999/xlink" x="0px" y="0px"
	 viewBox="0 0 480 480" style="enable-background:new 0 0 480 480;" xml:space="preserve">
<path style="fill:#FFF1D0;" d="M8,392h80v80h304V8H8V392z M360,440h-96v-32v-32h96V440z M360,272h-96v-32v-32h96V272z M264,40h96v64
	h-96V72V40z M40,272v-64v-64h128v32v32v32v32v32v32H40V272z"/>
<rect x="424" y="112" style="fill:#DD3232;" width="48" height="280"/>
<g>
	<polygon style="fill:#FFF1D0;" points="424,112 472,112 448,48 	"/>
	<path style="fill:#FFF1D0;" d="M424,422.056c0,6.368,2.528,12.472,7.032,16.968c9.376,9.376,24.568,9.376,33.944,0
		c4.496-4.496,7.024-10.6,7.024-16.968V392h-48V422.056z"/>
</g>
<g>
	<polygon style="fill:#06AED5;" points="8,392 88,472 88,392 	"/>
	<polygon style="fill:#06AED5;" points="360,104 360,40 264,40 264,72 264,104 	"/>
	<polygon style="fill:#06AED5;" points="168,304 168,272 168,240 168,208 168,176 168,144 40,144 40,208 40,272 40,336 168,336 	"/>
	<polygon style="fill:#06AED5;" points="264,240 264,272 360,272 360,208 264,208 	"/>
	<polygon style="fill:#06AED5;" points="264,408 264,440 360,440 360,376 264,376 	"/>
</g>
<g>
	<path style="fill:#242A40;" d="M448,454.04c8.192,0,16.384-3.12,22.624-9.352c5.96-5.952,9.376-14.192,9.376-22.624V392V112
		c0-0.096-0.056-0.184-0.056-0.28c-0.032-0.856-0.144-1.712-0.448-2.536l-24-64C454.32,42.072,451.336,40,448,40
		s-6.32,2.072-7.496,5.184l-24,64c-0.304,0.824-0.424,1.68-0.448,2.536c0,0.096-0.056,0.184-0.056,0.28v280v30.064
		c0,8.432,3.416,16.672,9.376,22.624C431.616,450.92,439.808,454.04,448,454.04z M464,384h-32V120h32V384z M464,422.064
		c0,4.208-1.704,8.336-4.688,11.312c-6.232,6.232-16.392,6.232-22.624,0c-2.984-2.976-4.688-7.104-4.688-11.312V400h32V422.064z
		 M448,70.784L460.456,104h-24.912L448,70.784z"/>
	<path style="fill:#242A40;" d="M0.512,394.56c0.088,0.256,0.152,0.512,0.272,0.76c0.392,0.848,0.88,1.656,1.568,2.344l80,80
		c0.752,0.752,1.64,1.336,2.608,1.736c0.96,0.392,1.992,0.6,3.04,0.6h304c4.416,0,8-3.576,8-8V8c0-4.424-3.584-8-8-8H8
		C3.584,0,0,3.576,0,8v384c0,0.176,0.088,0.328,0.104,0.504C0.144,393.208,0.28,393.888,0.512,394.56z M27.312,400H80v52.688
		L27.312,400z M384,16v448H96v-72c0-4.424-3.584-8-8-8H16V16H384z"/>
	<path style="fill:#242A40;" d="M40,344h128c4.416,0,8-3.576,8-8v-24h32v96c0,4.424,3.584,8,8,8h40v24c0,4.424,3.584,8,8,8h96
		c4.416,0,8-3.576,8-8v-64c0-4.424-3.584-8-8-8h-96c-4.416,0-8,3.576-8,8v24h-32V248h32v24c0,4.424,3.584,8,8,8h96
		c4.416,0,8-3.576,8-8v-64c0-4.424-3.584-8-8-8h-96c-4.416,0-8,3.576-8,8v24h-32V80h32v24c0,4.424,3.584,8,8,8h96
		c4.416,0,8-3.576,8-8V40c0-4.424-3.584-8-8-8h-96c-4.416,0-8,3.576-8,8v24h-40c-4.416,0-8,3.576-8,8v96h-32v-24
		c0-4.424-3.584-8-8-8H40c-4.416,0-8,3.576-8,8v64v64v64C32,340.424,35.584,344,40,344z M272,384h80v48h-80V384z M272,216h80v48h-80
		V216z M272,48h80v48h-80V48z M160,264H48v-48h112V264z M160,328H48v-48h112V328z M176,296v-24v-24h32v48H176z M208,184v48h-32v-24
		v-24H208z M48,152h112v48H48V152z"/>
	<rect x="64" y="168" style="fill:#242A40;" width="48" height="16"/>
	<rect x="128" y="168" style="fill:#242A40;" width="16" height="16"/>
	<rect x="64" y="232" style="fill:#242A40;" width="48" height="16"/>
	<rect x="128" y="232" style="fill:#242A40;" width="16" height="16"/>
	<rect x="64" y="296" style="fill:#242A40;" width="48" height="16"/>
	<rect x="128" y="296" style="fill:#242A40;" width="16" height="16"/>
	<rect x="288" y="64" style="fill:#242A40;" width="16" height="16"/>
	<rect x="320" y="64" style="fill:#242A40;" width="16" height="16"/>
	<rect x="288" y="232" style="fill:#242A40;" width="16" height="16"/>
	<rect x="320" y="232" style="fill:#242A40;" width="16" height="16"/>
	<rect x="288" y="400" style="fill:#242A40;" width="16" height="16"/>
	<rect x="320" y="400" style="fill:#242A40;" width="16" height="16"/>
</g>
<g>
</g>
<g>
</g>
<g>
</g>
<g>
</g>
<g>
</g>
<g>
</g>
<g>
</g>
<g>
</g>
<g>
</g>
<g>
</g>
<g>
</g>
<g>
</g>
<g>
</g>
<g>
</g>
<g>
</g>
</svg>
