<svg id="Capa_1" enable-background="new 0 0 512 512" height="512" viewBox="0 0 512 512" width="512" xmlns="http://www.w3.org/2000/svg"><g><g><circle cx="256" cy="256" fill="#524798" r="256"/><path d="m256 0v512c141.385 0 256-114.615 256-256s-114.615-256-256-256z" fill="#2e2654"/></g><g><path d="m408.449 168.809c-6.944-4.521-16.235-2.555-20.755 4.388l-34.967 53.717-35.334-54.114c-4.529-6.936-13.823-8.889-20.761-4.358-6.936 4.529-8.888 13.824-4.358 20.761l45.462 69.624-.177 72.138c-.02 8.284 6.679 15.017 14.963 15.037h.038c8.267 0 14.979-6.691 14.999-14.963l.177-72.19 45.102-69.284c4.518-6.945 2.553-16.237-4.389-20.756z" fill="#8cbcff"/><path d="m186.667 250.679 43.001-61.04c4.771-6.772 3.148-16.13-3.624-20.901s-16.13-3.148-20.901 3.624l-36.811 52.253-36.753-52.246c-4.766-6.774-14.123-8.402-20.899-3.638-6.776 4.767-8.405 14.123-3.638 20.899l42.937 61.036-50.507 71.694c-4.771 6.772-3.148 16.13 3.624 20.901 2.626 1.85 5.64 2.738 8.625 2.738 4.714 0 9.355-2.216 12.276-6.362l44.317-62.907 44.248 62.9c2.921 4.151 7.564 6.37 12.282 6.37 2.981 0 5.993-.887 8.617-2.732 6.776-4.767 8.405-14.123 3.638-20.899z" fill="#e789da"/></g></g></svg>