<?xml version="1.0" encoding="iso-8859-1"?>
<!-- Generator: Adobe Illustrator 19.0.0, SVG Export Plug-In . SVG Version: 6.00 Build 0)  -->
<svg version="1.1" id="Capa_1" xmlns="http://www.w3.org/2000/svg" xmlns:xlink="http://www.w3.org/1999/xlink" x="0px" y="0px"
	 viewBox="0 0 512 512" style="enable-background:new 0 0 512 512;" xml:space="preserve">
<g>
	<path style="fill:#35495E;" d="M17.655,459.034h476.69v35.31c0,9.751-7.904,17.655-17.655,17.655H35.31
		c-9.751,0-17.655-7.905-17.655-17.655V459.034z"/>
	<path style="fill:#A5A5A4;" d="M229.517,0h52.966c4.875,0,8.828,3.952,8.828,8.828v194.207H220.69V8.828
		C220.69,3.952,224.642,0,229.517,0z"/>
	<g>
		<path style="fill:#5E5F62;" d="M306.82,115.023l-105.931,26.483c-4.323,1.084-7.161,5.22-6.615,9.643
			c0.546,4.424,4.303,7.746,8.76,7.747c0.726,0.003,1.45-0.086,2.154-0.265l105.931-26.483c4.697-1.212,7.535-5.987,6.357-10.693
			c-1.179-4.705-5.933-7.578-10.647-6.433H306.82z"/>
		<path style="fill:#5E5F62;" d="M306.82,79.713l-105.931,26.483c-4.323,1.084-7.161,5.22-6.615,9.643
			c0.546,4.424,4.303,7.746,8.76,7.747c0.726,0.003,1.45-0.086,2.154-0.265l105.931-26.483c4.697-1.212,7.535-5.987,6.357-10.693
			c-1.179-4.705-5.933-7.578-10.647-6.433H306.82z"/>
		<path style="fill:#5E5F62;" d="M306.82,44.403L200.889,70.886c-4.323,1.084-7.161,5.22-6.615,9.643
			c0.546,4.424,4.303,7.746,8.76,7.747c0.726,0.003,1.45-0.086,2.154-0.265l105.931-26.483c3.079-0.748,5.521-3.089,6.399-6.134
			c0.877-3.045,0.055-6.327-2.154-8.598c-2.209-2.272-5.467-3.185-8.535-2.393H306.82z"/>
		<path style="fill:#5E5F62;" d="M203.034,52.966c0.726,0.003,1.45-0.086,2.154-0.265l105.931-26.483
			c4.697-1.212,7.535-5.987,6.357-10.693c-1.179-4.705-5.933-7.578-10.647-6.433L200.898,35.575
			c-4.322,1.083-7.159,5.217-6.616,9.639C194.826,49.636,198.579,52.961,203.034,52.966z"/>
	</g>
	<path style="fill:#35495E;" d="M35.31,176.552H476.69c9.751,0,17.655,7.904,17.655,17.655v35.31H17.655v-35.31
		C17.655,184.456,25.56,176.552,35.31,176.552z"/>
	<g>
		<path style="fill:#41767F;" d="M8.828,211.862h494.345c4.875,0,8.828,3.952,8.828,8.828v52.966c0,4.875-3.952,8.828-8.828,8.828
			H8.828c-4.875,0-8.828-3.952-8.828-8.828V220.69C0,215.814,3.952,211.862,8.828,211.862z"/>
		<path style="fill:#41767F;" d="M8.828,406.069h494.345c4.875,0,8.828,3.952,8.828,8.828v52.966c0,4.875-3.952,8.828-8.828,8.828
			H8.828c-4.875,0-8.828-3.952-8.828-8.828v-52.966C0,410.021,3.952,406.069,8.828,406.069z"/>
	</g>
	<g>
		<path style="fill:#67B9CC;" d="M61.793,238.345H35.31c-4.875,0-8.828,3.952-8.828,8.828S30.435,256,35.31,256h26.483
			c4.875,0,8.828-3.952,8.828-8.828S66.668,238.345,61.793,238.345z"/>
		<path style="fill:#67B9CC;" d="M97.103,256H220.69c4.875,0,8.828-3.952,8.828-8.828s-3.952-8.828-8.828-8.828H97.103
			c-4.875,0-8.828,3.952-8.828,8.828S92.228,256,97.103,256z"/>
		<path style="fill:#67B9CC;" d="M61.793,432.552H35.31c-4.875,0-8.828,3.952-8.828,8.828s3.952,8.828,8.828,8.828h26.483
			c4.875,0,8.828-3.952,8.828-8.828S66.668,432.552,61.793,432.552z"/>
		<path style="fill:#67B9CC;" d="M220.69,432.552H97.103c-4.875,0-8.828,3.952-8.828,8.828s3.952,8.828,8.828,8.828H220.69
			c4.875,0,8.828-3.952,8.828-8.828S225.565,432.552,220.69,432.552z"/>
	</g>
	<path style="fill:#A5A5A4;" d="M185.379,282.483h141.241c34.127,0,61.793,27.666,61.793,61.793l0,0
		c0,34.127-27.666,61.793-61.793,61.793H185.379c-34.127,0-61.793-27.666-61.793-61.793l0,0
		C123.586,310.148,151.252,282.483,185.379,282.483z"/>
	<path style="fill:#D1D4D1;" d="M326.621,308.966H185.379c-19.501,0-35.31,15.809-35.31,35.31c0,19.501,15.809,35.31,35.31,35.31
		c4.875,0,8.828-3.952,8.828-8.828s-3.952-8.828-8.828-8.828c-9.751,0-17.655-7.905-17.655-17.655s7.904-17.655,17.655-17.655
		h141.241c9.751,0,17.655,7.904,17.655,17.655s-7.904,17.655-17.655,17.655c-4.875,0-8.828,3.952-8.828,8.828
		s3.952,8.828,8.828,8.828c19.501,0,35.31-15.809,35.31-35.31C361.931,324.774,346.122,308.966,326.621,308.966z"/>
</g>
<g>
</g>
<g>
</g>
<g>
</g>
<g>
</g>
<g>
</g>
<g>
</g>
<g>
</g>
<g>
</g>
<g>
</g>
<g>
</g>
<g>
</g>
<g>
</g>
<g>
</g>
<g>
</g>
<g>
</g>
</svg>
