<svg height="512" viewBox="0 0 256 256" width="512" xmlns="http://www.w3.org/2000/svg"><rect fill="#f8af23" height="50.25" rx="5" width="78" x="19.612" y="165.552"/><path d="m97.612 170.552a5 5 0 0 0 -5-5h-68a5 5 0 0 0 -5 5v9.288h78z" fill="#9e9e9e"/><rect fill="#9e9e9e" height="25.182" rx="4.919" width="73.851" x="162.537" y="109.922"/><rect fill="#9e9e9e" height="25.182" rx="4.919" width="73.851" x="162.537" y="135.105"/><rect fill="#9e9e9e" height="25.182" rx="4.919" width="73.851" x="162.537" y="84.74"/><path d="m231.469 84.74h-9.5a4.919 4.919 0 0 1 4.919 4.919v15.341a4.919 4.919 0 0 1 -4.919 4.919h9.5a4.919 4.919 0 0 0 4.919-4.919v-15.341a4.919 4.919 0 0 0 -4.919-4.919z" fill="#cecece"/><path d="m231.469 109.922h-9.5a4.919 4.919 0 0 1 4.919 4.919v15.345a4.919 4.919 0 0 1 -4.919 4.919h9.5a4.919 4.919 0 0 0 4.919-4.919v-15.345a4.919 4.919 0 0 0 -4.919-4.919z" fill="#cecece"/><path d="m231.469 135.1h-9.5a4.919 4.919 0 0 1 4.919 4.919v15.345a4.919 4.919 0 0 1 -4.919 4.919h9.5a4.919 4.919 0 0 0 4.919-4.919v-15.341a4.919 4.919 0 0 0 -4.919-4.923z" fill="#cecece"/><rect fill="#f8af23" height="7.043" rx="1.43" width="7.043" x="221.3" y="118.992"/><path d="m170.582 118.992h39.168v7.043h-39.168z" fill="#f8af23"/><rect fill="#f8af23" height="7.043" rx="1.43" width="7.043" x="221.3" y="93.81"/><path d="m170.582 93.81h39.168v7.043h-39.168z" fill="#f8af23"/><rect fill="#f8af23" height="7.043" rx="1.43" width="7.043" x="221.3" y="144.174"/><path d="m170.582 144.174h39.168v7.043h-39.168z" fill="#f8af23"/><rect fill="#63bce7" height="50.25" rx="5" width="78" x="19.612" y="29.225"/><path d="m29.112 74.475v-40.25a5 5 0 0 1 5-5h-9.5a5 5 0 0 0 -5 5v40.25a5 5 0 0 0 5 5h9.5a5 5 0 0 1 -5-5z" fill="#6377e7"/><rect fill="#f46275" height="50.25" rx="5" width="78" x="19.612" y="97.389"/><path d="m29.112 142.639v-40.25a5 5 0 0 1 5-5h-9.5a5 5 0 0 0 -5 5v40.25a5 5 0 0 0 5 5h9.5a5 5 0 0 1 -5-5z" fill="#f43075"/><path d="m29.112 210.8v-40.25a5 5 0 0 1 5-5h-9.5a5 5 0 0 0 -5 5v40.25a5 5 0 0 0 5 5h9.5a5 5 0 0 1 -5-5z" fill="#f87023"/><path d="m97.612 34.225a5 5 0 0 0 -5-5h-68a5 5 0 0 0 -5 5v9.288h78z" fill="#9e9e9e"/><path d="m34.112 29.225h-9.5a5 5 0 0 0 -5 5v9.288h9.5v-9.288a5 5 0 0 1 5-5z" fill="#707070"/><path d="m97.612 102.389a5 5 0 0 0 -5-5h-68a5 5 0 0 0 -5 5v9.288h78z" fill="#9e9e9e"/><path d="m34.112 97.389h-9.5a5 5 0 0 0 -5 5v9.288h9.5v-9.288a5 5 0 0 1 5-5z" fill="#707070"/><path d="m34.112 165.552h-9.5a5 5 0 0 0 -5 5v9.288h9.5v-9.288a5 5 0 0 1 5-5z" fill="#707070"/><g fill="#3f3679"><path d="m27.323 225.274h-18a1.5 1.5 0 1 0 0 3h18a1.5 1.5 0 1 0 0-3z"/><path d="m246.68 225.274h-18a1.5 1.5 0 1 0 0 3h18a1.5 1.5 0 0 0 0-3z"/><path d="m218.479 225.274h-180.958a1.5 1.5 0 1 0 0 3h180.958a1.5 1.5 0 1 0 0-3z"/><path d="m9.32 217.3h237.36a1.5 1.5 0 0 0 0-3h-148.6a6.455 6.455 0 0 0 1.032-3.5v-18.623h81.344a20.53 20.53 0 0 0 20.507-20.507v-9.883h30.506a6.426 6.426 0 0 0 6.419-6.419v-15.345a6.406 6.406 0 0 0 -2.3-4.919 6.406 6.406 0 0 0 2.3-4.919v-15.344a6.4 6.4 0 0 0 -2.3-4.918 6.406 6.406 0 0 0 2.3-4.919v-15.345a6.426 6.426 0 0 0 -6.419-6.419h-30.506v-9.883a20.53 20.53 0 0 0 -20.507-20.507h-81.344v-18.624a6.508 6.508 0 0 0 -6.5-6.5h-68a6.508 6.508 0 0 0 -6.5 6.5v40.25a6.508 6.508 0 0 0 6.5 6.5h68a6.508 6.508 0 0 0 6.5-6.5v-18.625h81.344a17.527 17.527 0 0 1 17.507 17.507v9.882h-30.507a6.426 6.426 0 0 0 -6.419 6.419v15.341a6.406 6.406 0 0 0 2.3 4.919 6.4 6.4 0 0 0 -2.3 4.918v15.345a6.406 6.406 0 0 0 2.3 4.919 6.406 6.406 0 0 0 -2.3 4.919v15.345a6.426 6.426 0 0 0 6.419 6.419h30.507v9.883a17.527 17.527 0 0 1 -17.507 17.507h-81.344v-18.622a6.508 6.508 0 0 0 -6.5-6.5h-68a6.508 6.508 0 0 0 -6.5 6.5v40.248a6.455 6.455 0 0 0 1.032 3.5h-9.824a1.5 1.5 0 1 0 0 3zm11.792-183.074a3.5 3.5 0 0 1 3.5-3.5h68a3.5 3.5 0 0 1 3.5 3.5v7.788h-75zm75 40.25a3.5 3.5 0 0 1 -3.5 3.5h-68a3.5 3.5 0 0 1 -3.5-3.5v-29.462h75zm67.925 30.524v-15.341a3.423 3.423 0 0 1 3.419-3.419h64.013a3.423 3.423 0 0 1 3.419 3.419v15.341a3.423 3.423 0 0 1 -3.419 3.419h-64.013a3.423 3.423 0 0 1 -3.419-3.419zm0 25.182v-15.341a3.422 3.422 0 0 1 3.419-3.418h64.013a3.422 3.422 0 0 1 3.419 3.418v15.345a3.423 3.423 0 0 1 -3.419 3.419h-64.013a3.423 3.423 0 0 1 -3.419-3.419zm0 25.183v-15.342a3.423 3.423 0 0 1 3.419-3.419h64.013a3.423 3.423 0 0 1 3.419 3.419v15.345a3.423 3.423 0 0 1 -3.419 3.419h-64.013a3.423 3.423 0 0 1 -3.419-3.419zm-142.925 15.187a3.5 3.5 0 0 1 3.5-3.5h68a3.5 3.5 0 0 1 3.5 3.5v7.788h-75zm0 40.25v-29.462h75v29.46a3.5 3.5 0 0 1 -3.5 3.5h-68a3.5 3.5 0 0 1 -3.5-3.5z"/><path d="m226.914 117.492h-4.184a2.933 2.933 0 0 0 -2.929 2.93v4.184a2.933 2.933 0 0 0 2.929 2.93h4.184a2.933 2.933 0 0 0 2.93-2.93v-4.184a2.933 2.933 0 0 0 -2.93-2.93zm-.07 7.044-4.043.069-.071-4.113 4.114-.07z"/><path d="m209.75 117.492h-39.168a1.5 1.5 0 0 0 -1.5 1.5v7.043a1.5 1.5 0 0 0 1.5 1.5h39.168a1.5 1.5 0 0 0 1.5-1.5v-7.043a1.5 1.5 0 0 0 -1.5-1.5zm-1.5 7.043h-36.168v-4.043h36.168z"/><path d="m226.914 92.31h-4.184a2.933 2.933 0 0 0 -2.929 2.93v4.184a2.933 2.933 0 0 0 2.929 2.93h4.184a2.933 2.933 0 0 0 2.93-2.93v-4.185a2.933 2.933 0 0 0 -2.93-2.929zm-.07 7.044-4.043.069-.071-4.113 4.114-.07z"/><path d="m209.75 92.31h-39.168a1.5 1.5 0 0 0 -1.5 1.5v7.043a1.5 1.5 0 0 0 1.5 1.5h39.168a1.5 1.5 0 0 0 1.5-1.5v-7.043a1.5 1.5 0 0 0 -1.5-1.5zm-1.5 7.043h-36.168v-4.043h36.168z"/><path d="m222.729 152.718h4.184a2.933 2.933 0 0 0 2.93-2.93v-4.188a2.933 2.933 0 0 0 -2.93-2.93h-4.184a2.933 2.933 0 0 0 -2.929 2.93v4.185a2.933 2.933 0 0 0 2.929 2.933zm4.114-7.114v4.115l-4.043.069-.071-4.114z"/><path d="m211.25 151.218v-7.044a1.5 1.5 0 0 0 -1.5-1.5h-39.168a1.5 1.5 0 0 0 -1.5 1.5v7.044a1.5 1.5 0 0 0 1.5 1.5h39.168a1.5 1.5 0 0 0 1.5-1.5zm-3-1.5h-36.168v-4.044h36.168z"/><path d="m24.612 149.139h68a6.508 6.508 0 0 0 6.5-6.5v-18.625h49.3l-4.425 4.425a1.5 1.5 0 1 0 2.121 2.121l6.986-6.985a1.5 1.5 0 0 0 0-2.121l-6.986-6.986a1.5 1.5 0 1 0 -2.121 2.121l4.425 4.426h-49.3v-18.626a6.508 6.508 0 0 0 -6.5-6.5h-68a6.508 6.508 0 0 0 -6.5 6.5v40.25a6.508 6.508 0 0 0 6.5 6.5zm71.5-6.5a3.5 3.5 0 0 1 -3.5 3.5h-68a3.5 3.5 0 0 1 -3.5-3.5v-29.462h75zm-75-40.25a3.5 3.5 0 0 1 3.5-3.5h68a3.5 3.5 0 0 1 3.5 3.5v7.788h-75z"/></g></svg>