<svg height="464pt" viewBox="0 0 464 464" width="464pt" xmlns="http://www.w3.org/2000/svg"><g fill="#5eac24"><path d="m408 440h-88c-13.253906 0-24-10.746094-24-24v-72h16v72c0 4.417969 3.582031 8 8 8h88zm0 0"/><path d="m144 440h-88v-16h88c4.417969 0 8-3.582031 8-8v-72h16v72c0 13.253906-10.746094 24-24 24zm0 0"/><path d="m312 112h-16v-64c0-13.253906 10.746094-24 24-24h88v16h-88c-4.417969 0-8 3.582031-8 8zm0 0"/><path d="m168 112h-16v-64c0-4.417969-3.582031-8-8-8h-88v-16h88c13.253906 0 24 10.746094 24 24zm0 0"/><path d="m360 224h48v16h-48zm0 0"/><path d="m56 224h48v16h-48zm0 0"/></g><path d="m336 160-104 56v128l104-56zm0 0" fill="#006df0"/><path d="m336 160-104-56-104 56 104 56zm0 0" fill="#ed1c24"/><path d="m128 160v128l104 56v-128zm0 0" fill="#ffcd00"/><path d="m247.441406 112.320312-15.441406-8.320312-104 56 16 8.640625v-.640625" fill="#cd2a00"/><path d="m143.96875 296.601562-15.96875-8.601562v-128l16 8.640625zm0 0" fill="#ebbf00"/><path d="m464 432c0 17.671875-14.328125 32-32 32s-32-14.328125-32-32 14.328125-32 32-32 32 14.328125 32 32zm0 0" fill="#7ed63e"/><path d="m64 432c0 17.671875-14.328125 32-32 32s-32-14.328125-32-32 14.328125-32 32-32 32 14.328125 32 32zm0 0" fill="#7ed63e"/><path d="m464 32c0 17.671875-14.328125 32-32 32s-32-14.328125-32-32 14.328125-32 32-32 32 14.328125 32 32zm0 0" fill="#7ed63e"/><path d="m64 32c0 17.671875-14.328125 32-32 32s-32-14.328125-32-32 14.328125-32 32-32 32 14.328125 32 32zm0 0" fill="#7ed63e"/><path d="m464 232c0 17.671875-14.328125 32-32 32s-32-14.328125-32-32 14.328125-32 32-32 32 14.328125 32 32zm0 0" fill="#7ed63e"/><path d="m64 232c0 17.671875-14.328125 32-32 32s-32-14.328125-32-32 14.328125-32 32-32 32 14.328125 32 32zm0 0" fill="#7ed63e"/><path d="m424 24h16v16h-16zm0 0" fill="#ed1c24"/><path d="m424 224h16v16h-16zm0 0" fill="#ed1c24"/><path d="m424 424h16v16h-16zm0 0" fill="#ed1c24"/><path d="m24 424h16v16h-16zm0 0" fill="#ed1c24"/><path d="m24 24h16v16h-16zm0 0" fill="#ed1c24"/><path d="m24 224h16v16h-16zm0 0" fill="#ed1c24"/></svg>