<?xml version="1.0" encoding="iso-8859-1"?>
<!-- Generator: Adobe Illustrator 19.0.0, SVG Export Plug-In . SVG Version: 6.00 Build 0)  -->
<svg version="1.1" id="Capa_1" xmlns="http://www.w3.org/2000/svg" xmlns:xlink="http://www.w3.org/1999/xlink" x="0px" y="0px"
	 viewBox="0 0 512 512" style="enable-background:new 0 0 512 512;" xml:space="preserve">
<g>
	<polygon style="fill:#285680;" points="512,0 512,273.655 273.655,512 0,512 0,238.345 238.345,0 317.793,0 317.793,52.966 
		282.483,88.276 282.483,150.069 432.552,0 	"/>
	<polygon style="fill:#90BAE1;" points="273.655,238.345 273.655,512 0,512 0,238.345 79.448,238.345 79.448,291.31 52.966,291.31 
		52.966,459.034 220.69,459.034 220.69,291.31 194.207,291.31 194.207,238.345 	"/>
	<g>
		<polygon style="fill:#4482C3;" points="317.793,0 79.448,238.345 0,238.345 238.345,0 		"/>
		<polygon style="fill:#4482C3;" points="512,0 273.655,238.345 194.207,238.345 432.552,0 		"/>
	</g>
	<polygon style="fill:#35495E;" points="220.69,291.31 220.69,459.034 52.966,459.034 	"/>
	<polygon style="fill:#285680;" points="194.207,238.345 194.207,291.31 220.69,291.31 52.966,459.034 52.966,291.31 79.448,291.31 
		282.483,88.276 282.483,150.069 	"/>
</g>
<g>
</g>
<g>
</g>
<g>
</g>
<g>
</g>
<g>
</g>
<g>
</g>
<g>
</g>
<g>
</g>
<g>
</g>
<g>
</g>
<g>
</g>
<g>
</g>
<g>
</g>
<g>
</g>
<g>
</g>
</svg>
