<svg id="Layer_1" enable-background="new 0 0 497 497" height="512" viewBox="0 0 497 497" width="512" xmlns="http://www.w3.org/2000/svg"><g><path d="m94.441 278.994-71.728 68.251 157.278 68.255 64.309-101.543z" fill="#bed0e0"/><path d="m351.436 445.318 136.715-234.888c5.625-9.619 8.849-20.814 8.849-32.762 0-35.897-29.1-64.998-64.998-64.998-7.962 0-17.448 2.547-24.497 5.167l-113.005 94.663-58.874 111.308z" fill="#bed0e0"/><path d="m432.003 112.671c-6.124 0-13.145 1.508-19.27 3.396 25.728 8.656 44.267 32.955 44.267 61.601 0 11.948-3.224 23.142-8.849 32.762l-121.55 208.831 24.834 26.056 136.716-234.887c5.625-9.62 8.849-20.814 8.849-32.762 0-35.897-29.1-64.997-64.997-64.997z" fill="#aec2d4"/><path d="m251.257 305.956 167.794-202.019h.001c8.133-10.853 12.951-24.334 12.951-38.94-.001-35.897-29.101-64.997-64.998-64.997-17.102 0-32.661 6.605-44.266 17.403l.003.003-201.201 165.163z" fill="#bed0e0"/><path d="m367.005 0c-6.978 0-13.692 1.116-19.993 3.152 26.105 8.439 44.991 32.931 44.991 61.846 0 14.606-4.818 28.086-12.951 38.939h-.001l-150.14 180.764 22.346 21.255 167.794-202.019h.001c8.133-10.853 12.951-24.333 12.951-38.939 0-35.898-29.101-64.998-64.998-64.998z" fill="#aec2d4"/><g><g><circle cx="179.991" cy="251.001" fill="#e8f4ff" r="89.995"/><ellipse cx="179.991" cy="251.001" fill="#889aa8" rx="64.996" ry="64.995" transform="matrix(.16 -.987 .987 .16 -96.6 388.462)"/><path d="m179.991 186.005c-6.977 0-13.695 1.118-20 3.162 26.08 8.456 44.995 32.972 44.995 61.833s-18.915 53.377-44.995 61.833c6.305 2.044 13.023 3.162 20 3.162 35.839 0 64.996-29.157 64.996-64.996-.001-35.837-29.157-64.994-64.996-64.994z" fill="#768a99"/></g><g><circle cx="89.995" cy="407.004" fill="#e8f4ff" r="89.995"/><ellipse cx="89.995" cy="407.004" fill="#889aa8" rx="64.996" ry="64.995" transform="matrix(.16 -.987 .987 .16 -326.169 430.643)"/><path d="m89.995 342.009c-6.977 0-13.695 1.118-20 3.162 26.08 8.457 44.995 32.972 44.995 61.833s-18.915 53.377-44.995 61.833c6.305 2.044 13.023 3.162 20 3.162 35.839 0 64.996-29.157 64.996-64.996s-29.157-64.994-64.996-64.994z" fill="#768a99"/></g><g><circle cx="269.987" cy="407.004" fill="#e8f4ff" r="89.995"/><ellipse cx="269.987" cy="407.004" fill="#889aa8" rx="64.995" ry="64.996" transform="matrix(.924 -.383 .383 .924 -135.202 134.301)"/><path d="m269.987 342.009c-6.977 0-13.695 1.118-20 3.162 26.08 8.457 44.995 32.972 44.995 61.833s-18.915 53.377-44.995 61.833c6.305 2.044 13.023 3.162 20 3.162 35.838 0 64.995-29.157 64.995-64.996s-29.157-64.994-64.995-64.994z" fill="#768a99"/></g></g></g></svg>